<svg version="1.1" id="Ebene_1" xmlns="http://www.w3.org/2000/svg" xmlns:xlink="http://www.w3.org/1999/xlink" x="0px" y="0px" viewBox="0 0 1927.7 752.6" xml:space="preserve"><style type="text/css">
	.st0{fill:#E6C7A9;}
	.st1{fill:#0E1214;}
</style>
    <g id="Ebene_1_00000026142179875305945120000015762784971806642826_">
</g>
    <g id="Ebene_2_00000156580979336098094140000015655502042343279241_">
	<g>
		<path class="st0 logo-1" d="M657,91.9c-11.8,24.1-13.8,34.9-19.2,53.1l-83.5,305.2c-3.4,13.8-4.4,20.6,0,34.9h-98.8l-67.8-246.7
			l-58,211.8c-3.4,13.8-4.4,20.6,0,34.9h-98.3L139,150.4c-7.4-26-12.8-38.8-23.1-58.5h99.8c1.5,24.6,4.4,34.9,11.3,58.5l88,317.5
			l67.8-248.2l-19.2-69.3c-7.4-26-12.8-38.8-23.1-58.5h99.8c1.5,24.6,4.4,34.9,11.3,58.5l87.5,317.5l88-322.4
			c5.4-18.7,9.3-30.5,11.3-53.6L657,91.9L657,91.9z"></path>
        <path class="st0 logo-2" d="M659.9,288.5c0-127.3,99.8-206.4,232.4-206.4c132.7,0,232.9,79.1,232.9,206.4
			c0,127.8-100.2,206.4-232.9,206.4C759.7,494.9,659.9,416.2,659.9,288.5z M1035.8,288.5c0-103.2-48.2-196.1-143.5-196.1
			s-143,92.9-143,196.1c0,103.7,47.7,196.1,143,196.1C987.7,484.5,1035.8,392.2,1035.8,288.5z"></path>
        <path class="st0 logo-3" d="M1501.2,379.9c0,45.7,1.5,67.8,5.4,105.2h-93.4c3.9-37.3,5.4-59.5,5.4-105.2v-86h-159.7v86
			c0,45.7,1.5,67.8,5.4,105.2h-93.4c3.9-37.3,5.4-59.5,5.4-105.2V197.1c0-45.7-1.5-67.8-5.4-105.2h93.4
			c-3.9,37.3-5.4,59.5-5.4,105.2v86h159.7v-86c0-45.7-1.5-67.8-5.4-105.2h93.4c-3.9,37.3-5.4,59.5-5.4,105.2V379.9z"></path>
        <path class="st0 logo-4" d="M1656.5,91.9c-3.9,37.3-5.4,59.5-5.4,105.2v277.7h34.9c51.1,0,80.6-3.4,145.9-28l-18.2,38.3h-251.6
			c4.4-37.3,6.4-59.5,6.4-105.2V197.1c0-45.7-1.5-67.8-5.4-105.2H1656.5L1656.5,91.9z"></path>
	</g>
        <g>
		<path class="st1 logo-5" d="M139,560.5c2.9-2.7,6.4-5.7,10.2-8.8c4.3-3.8,9.2-5.8,14.6-5.8c7.9,0.5,13.7,3.5,17.4,9.2
			c3.6,5.7,5.4,12.2,5.4,19.7c0,7.3-1,14.1-3.1,20.4l24.8-3.1c43.8-3.2,94.2-19.3,151.4-48.3h1.4c2.3,0,3.4,1.2,3.4,3.7
			c0,1.6-0.7,2.6-2,3.1c-37.6,19.1-68.4,31.6-92.4,37.6c-23.9,6-48.1,10.2-72.6,12.4c-5.7,0.9-11.2,1.7-16.7,2.4
			c-4.5,15.4-15.3,23.1-32.3,23.1c-3.4,0-6.5-1.1-9.4-3.4c-2.8-2.3-4.2-5.3-4.2-9.2c0-5,2.9-8.6,8.7-10.9s13.6-4.1,23.3-5.4
			c2.9-7.7,4.4-15.2,4.4-22.4c0-14.5-2.5-21.8-7.5-21.8c-2.7,0-6,1.7-9.9,4.9c-3.9,3.3-7.5,6.9-11.1,10.9c-3.5,4-5.8,7.2-7,9.7
			c-0.9,5.2-1.4,10.5-1.4,16c0,4.1-2,6.1-6.1,6.1c-4.5,0-6.8-2.3-6.8-6.8c0-29,6.2-59.4,18.7-91.2c12.5-31.8,27.9-61.4,46.3-89.1
			s37.4-50.3,57.1-67.9s37.1-26.4,52-26.4c12.7,0,19,7.3,19,21.8c0,17.7-9.4,38.3-28.2,61.9c-20.9,27.2-45.1,53.9-72.6,79.9
			c-27.5,26.1-51.4,46.9-71.6,62.6L139,560.5z M148.8,619.3c5.9,0,10.9-4.8,15-14.3c-6.6,1.1-11.9,2.4-16,3.7s-6.1,2.9-6.1,4.8
			c0,1.8,0.7,3.2,2.2,4.2C145.4,618.8,147,619.3,148.8,619.3z M146.8,533.6c8.2-6.3,21.3-17.7,39.3-34c18-16.3,36.3-34.2,54.9-53.6
			s34.4-38.5,47.3-57.3s19.4-34.7,19.4-47.6c0-9.8-4-14.6-11.9-14.6c-11.8,1.8-27.5,13.6-47.3,35.4s-39.2,48.6-58.5,80.6
			C170.7,474.4,156.3,504.8,146.8,533.6z"></path>
            <path class="st1 logo-6" d="M556.3,694.5c-2.7,0-4.4-1.1-5.1-3.4c-3.6-29.2-5.4-57.5-5.4-84.7c0-60.8,7.5-112.9,22.5-156.5
			c-32.7,49.7-68.9,89.8-108.8,120.4c-25.8,20.9-50.5,31.3-73.8,31.3c-24.5,0-37.4-10.3-38.8-30.9c0-11.3,3.2-21.3,9.5-29.9
			c6.4-8.6,15.5-13.3,27.5-13.9c2.9,0,5.9,0.9,8.8,2.7c2.9,1.8,4.4,4.4,4.4,7.8c0,5.4-2,9.8-6,12.9c-4,3.2-8.6,5.3-14,6.5
			c-5.3,1.1-10.1,1.7-14.5,1.7c-0.7,2.9-1,6.7-1,11.2c0,6.8,2.1,12.6,6.3,17.5c4.2,4.9,10,7.3,17.5,7.3c18.4,0,38.4-7.5,60.2-22.4
			c21.8-15,43.9-35.3,66.3-61.1c22.5-25.7,44.1-54.9,65-87.6c15.4-43.8,34.2-86.5,56.5-128.2c1.8-3,4.4-4.5,7.8-4.8
			c5.9,0,9,1.9,9.2,5.8l-0.3,2c-5.7,10.7-10.6,20.9-14.8,30.6c-4.2,9.8-9.9,21.6-17.2,35.4c-31.3,67.1-51.1,134.6-59.5,202.4
			c0.2-0.4,3.1-3.7,8.5-9.9c12-15.4,23.7-23.1,35-23.1c8.4,0,12.6,3.4,12.6,10.2c0,9.8-5.8,18.7-17.3,26.7
			c-11.6,8.1-22.3,12.9-32.3,14.4c23.3,12.7,49.7,19.1,78.9,19.1c26.8,0,55.7-5.4,86.9-16.2c31.2-10.8,59.7-23.1,85.5-36.9l18.4-9.9
			c3.4,0,5.1,1.4,5.1,4.1c-0.2,0.5-0.3,0.8-0.3,1s-0.3,0.5-0.8,0.7c-0.6,0.2-1.1,0.5-1.7,0.8c-0.6,0.3-1.3,0.8-2.2,1.5
			c-2.5,0.9-7.5,3.4-15,7.5c-13.2,7.3-29.4,15-48.6,23.3c-19.3,8.3-40,15.5-62.2,21.6s-43.9,9.2-65,9.2c-36.5,0-65.8-6.6-87.8-19.7
			c-0.7,9.8-1,20.6-1,32.7c0,21.3,1.5,43.5,4.4,66.7C559.7,692,558.6,693.3,556.3,694.5z M365.2,551.3c4.8,0,10.1-1.2,16.2-3.6
			s9-5.8,9-10.4c0-2.3-2.2-3.4-6.5-3.4C375.7,533.9,369.5,539.7,365.2,551.3z M559,578.5c4.5-0.7,10.7-3.1,18.4-7.1
			c7.7-3.8,14.3-8.4,19.7-13.6s8.2-9.6,8.2-13.3c0-2.7-1-4.1-3.1-4.1c-6.8,0-14.2,4-22.1,11.9C572.2,560,565.2,568.7,559,578.5z"></path>
            <path class="st1 logo-7" d="M1079.4,541.4c1.6,0,2.7,0.2,3.2,0.7c0.6,0.5,1,0.9,1.2,1.4s0.3,1.1,0.3,2l-1.7,2
			c-63.3,35.2-115.3,52.7-156.1,52.7c-14.5,0-25.8-2.8-34-8.3c-8.2-5.6-12.9-13.4-14.3-23.6c-1.4,1.4-5.2,5-11.6,10.9
			c-13.4,12.2-24.3,18.4-32.7,18.4c-12.2,0-18.7-7.1-19.4-21.4c0-7.2,2.7-15.5,8.2-24.7s12.4-17.2,20.8-24
			c8.4-6.8,17.1-10.2,26.2-10.2c7.5,0,12.8,2.2,15.8,6.5c3.1,4.3,4.6,9.3,4.6,15c0,1.6-0.5,2.5-1.4,2.7s-1.8,0.3-2.7,0.3
			c-0.5,0-1-0.1-1.5-0.3c-0.6-0.2-1.1-0.6-1.5-1c-0.5-0.4-0.7-1.1-0.7-2c0-6.1-3.7-9.3-11.2-9.5c-5.9,0-12.2,3.1-18.9,9.2
			s-12.3,13.2-16.8,21.1s-6.8,14.6-6.8,20.1c0,6.8,2,10.5,6.1,11.2c5,0,11.3-3.1,19-9.2s16.1-14.1,25.2-23.8c1.1-2,3.1-3.1,5.8-3.1
			c5,0,7.5,2.2,7.5,6.5c0,21.3,11.6,32,34.7,32c39,0,89.7-16.9,152-50.7L1079.4,541.4z"></path>
            <path class="st1 logo-8" d="M1351.6,596.5c6.8-8.6,14.2-17.5,22.1-26.5c7.9-9.1,15.9-16.8,23.8-23.3s15.4-9.7,22.4-9.7
			c10.9,0.7,18.7,4.5,23.5,11.4s8.4,14.6,10.9,23c2.3,7,4.9,13,8,17.9s7.8,7.7,14.1,8.3c13.8,0,29.9-2.8,48.1-8.3
			c18.2-5.6,37.2-12.6,57-21.1c19.7-8.5,39.1-17.5,58.2-27c3.2,0,4.8,1,4.8,3.1v0.3c0,0.2,0,0.8,0,1.7c0,0.9-0.5,1.4-1.4,1.4
			c-0.7,0.5-7,3.6-19.1,9.3s-26.7,12.2-43.9,19.2c-45.1,19.1-79.7,28.6-103.7,28.6c-18.6,0-30.7-5-36.4-15
			c-5.4-10.2-8.8-19.7-10.2-28.6c-0.9-5.4-2-9.6-3.2-12.4s-3.5-4.2-6.6-4.2c-7,0-15,4.4-24,13.1s-20.9,21.8-35.9,39.3
			c-4.5,5.4-9.5,11.2-15,17.3c-1.8,1.8-3.5,2.7-5.1,2.7c-2.7,0-4.3-0.7-4.8-2.2s-0.7-3.3-0.7-5.6c2.3-17.7,8.1-36.6,17.3-56.8
			c-8.2,3.6-25.5,10.1-52,19.4c-44.9,16.1-79.6,24.2-104.1,24.2c-18.1,0-30.2-3.8-36.1-11.6c-5.7-8.4-9.3-16.2-10.9-23.5
			c-0.9-3.2-1.9-6.2-3.1-9.2c-0.9-2-2.9-3.1-6.1-3.1c-7.9,0-19.2,6-33.8,18c-14.6,12-28.2,24.8-40.7,38.4c-1.8,1.8-3.6,2.7-5.4,2.7
			c-3.4,0-5.2-2.4-5.4-7.1c0-5.2,2.3-14.7,6.8-28.6c4.5-13.8,9.2-25.5,13.9-35c2.3-4.3,5.6-6.6,9.9-6.8c6.3,0,9.5,2.3,9.5,6.8
			c0,1.1-0.5,2.6-1.4,4.4c-10.2,17.9-17.8,33.8-22.8,47.6c10.4-10.7,22.6-21.3,36.6-32c13.9-10.7,25-16,33.2-16
			c7.5,0,13.4,1.4,17.7,4.2c4.3,2.8,7.7,6.5,10.2,10.9s4.8,8.8,6.8,13.1c2,5.2,4.4,9.6,7.1,13.3c3.2,3.9,7.9,6,14.3,6.5
			c22,0,55.8-7.9,101.4-23.8L1359,541c2-0.9,4.5-1.4,7.5-1.4c5.4,0,8.2,2.2,8.2,6.5v0.3c0,1.1-0.5,2.6-1.4,4.4
			C1363.3,568.4,1356.1,583.6,1351.6,596.5z"></path>
            <path class="st1 logo-9" d="M1661.8,650.9c-13.4,0-22.5-4.9-27.4-14.8s-7.3-22.6-7.3-38.3c0-7.9,1-19.6,3.1-35c2-15.4,6-34.7,11.9-57.8
			c5.9-22,11.3-41.3,16.3-57.8c3.8-12.5,6.9-22.8,9.2-30.9c-3.2-0.2-7.4-0.3-12.6-0.3c-27.2,0-56.6,5.4-88.1,16.3
			c-2,0-3.7-0.4-5.1-1.2c-1.4-0.8-2-2.7-2-5.6c0-3.4,1.5-5.6,4.4-6.5c25.2-7.2,51.2-10.9,78.2-10.9c9.3,0,18.5,0.5,27.6,1.4
			c9.5-28.3,17.8-51.6,24.8-69.7c1.8-3.6,5.1-5.4,9.9-5.4c5.2,0,7.8,2.6,7.8,7.8c-8.4,20-17.1,42.9-26.2,68.7
			c11.8,1.6,23.2,3.6,34.3,6.1c9.1,1.8,18,3.5,26.9,4.9c8.8,1.5,18.2,2.2,28.2,2.2c10.7,0,21.4-0.8,32.3-2.4c2.7,0,4.1,1.2,4.1,3.7
			v1c-0.5,0.7-0.9,1.2-1.4,1.5s-1.1,0.5-2,0.5c-11.1,1.6-22.3,2.4-33.7,2.4c-9.8,0-19.3-0.7-28.6-2.2c-9.3-1.5-18.7-3.1-28.2-4.9
			c-11.3-2.3-22.9-4.2-34.7-5.8c-11.3,32.4-20.9,65.9-28.7,100.3c-7.8,34.5-11.7,63.9-11.7,88.4c0,24.9,6.1,37.4,18.4,37.4
			c14.5,0,29.8-4.1,45.8-12.2c16-8.2,32-18.8,48-32s31-27.1,45.1-41.8c9.5-10,14.3-15.2,14.3-15.7l2-1.4c3.2,0,4.8,1.1,4.8,3.4v0.3
			c0,0.2,0,0.5,0,0.8s-0.2,0.8-0.7,1.5l-0.7,0.3c-2.3,2.7-8.6,9.4-19.1,20.1c-10.4,10.7-23.3,22.3-38.6,35
			c-15.3,12.7-31.8,23.9-49.5,33.7C1695.1,646.1,1678.1,650.9,1661.8,650.9z"></path>
	</g>
        <g>
		<path class="st0 logo-4" d="M1566.1,448.2c0.7-8.2,1.2-16.7,1.6-25.4c0.5-10.4,0.7-20.4,0.7-30.1c27.6,0,55.1,0,82.7,0v55.5
			C1622.7,448.2,1594.4,448.2,1566.1,448.2z"></path>
	</g>
        <polygon class="st0 logo-1" points="213.1,419.6 199.4,369.7 270.9,309.1 284.6,358.9 	"></polygon>
</g>
</svg>
